<?xml version="1.0" encoding="UTF-8"?>
<svg width="32px" height="32px" viewBox="0 0 32 32" version="1.1" xmlns="http://www.w3.org/2000/svg" xmlns:xlink="http://www.w3.org/1999/xlink">
    <!-- Generator: Sketch 41.2 (35397) - http://www.bohemiancoding.com/sketch -->
    <title>Icon 25x25</title>
    <desc>Created with Sketch.</desc>
    <defs></defs>
    <g id="Baikal-Startup-Components" stroke="none" stroke-width="1" fill="none" fill-rule="evenodd">
        <g id="Advantages" transform="translate(-959.000000, -4810.000000)" fill="#3C3D41">
            <g id="Advantages-#8" transform="translate(0.000000, 4730.000000)">
                <path d="M987.185,80 L962.815,80 C960.712,80 959,81.746 959,83.892 L959,110.75 C959,111.441 959.559,112 960.25,112 L989.75,112 C990.44,112 990.999,111.441 990.999,110.75 L990.999,83.892 C990.999,81.746 989.289,80 987.185,80 L987.185,80 Z M962.815,82.5 L987.185,82.5 C987.91,82.5 988.499,83.124 988.499,83.892 L988.499,87.045 L961.499,87.045 L961.499,83.892 C961.499,83.124 962.089,82.5 962.815,82.5 L962.815,82.5 Z M961.499,89.545 L988.499,89.545 L988.499,109.5 L961.499,109.5 L961.499,89.545 Z M970.668,95.783 C970.201,95.274 969.41,95.243 968.902,95.709 L965.827,98.536 C965.569,98.773 965.422,99.107 965.422,99.456 C965.422,99.806 965.569,100.14 965.827,100.376 L968.902,103.203 C969.142,103.424 969.445,103.533 969.748,103.533 C970.085,103.533 970.421,103.398 970.668,103.129 C971.135,102.621 971.102,101.83 970.593,101.364 L968.519,99.456 L970.593,97.549 C971.102,97.082 971.135,96.291 970.668,95.783 Z M981.435,95.709 C980.93,95.243 980.137,95.274 979.67,95.783 C979.202,96.291 979.235,97.082 979.744,97.549 L981.817,99.456 L979.744,101.364 C979.235,101.83 979.202,102.621 979.67,103.129 C979.916,103.398 980.252,103.533 980.589,103.533 C980.892,103.533 981.196,103.424 981.435,103.203 L984.509,100.376 C984.767,100.14 984.914,99.806 984.914,99.456 C984.914,99.107 984.767,98.773 984.509,98.536 L981.435,95.709 Z M975.816,93.41 C975.141,93.284 974.488,93.74 974.365,94.42 L972.578,104.361 C972.456,105.039 972.908,105.69 973.587,105.812 C973.662,105.825 973.736,105.831 973.809,105.831 C974.403,105.831 974.929,105.407 975.039,104.802 L976.826,94.862 C976.948,94.183 976.496,93.532 975.816,93.41 Z" id="Icon-25x25"></path>
            </g>
        </g>
    </g>
</svg>