<svg xmlns="http://www.w3.org/2000/svg" viewBox="0 0 912.89 220.95"><defs><style>.cls-1{fill:#154b68;}</style></defs><title>Asset 9</title><g id="Layer_2" data-name="Layer 2"><g id="Layer_1-2" data-name="Layer 1"><path class="cls-1" d="M881.8,184c-8.92.83-9.89-.57-9.89-.57-1.51-.66-1.91-1.79-2-3.32,0-1.16.59-4.44,1.39-5.42a11.6,11.6,0,0,1-1.32,1.64l-2.15.57a.21.21,0,0,1-.26-.2v-2.63a.19.19,0,0,0,0-.12,10.2,10.2,0,0,0-1.68-1.55c-1.66-1.45-3.34-2.89-5-4.34q-3.44-3-6.82-6.08c-2.42-2.22-4.81-4.48-7.11-6.82a76.33,76.33,0,0,1-5.88-6.57,28.15,28.15,0,0,1-2-2.88,31.41,31.41,0,0,1-2.63-6.91c0-.21-.07-.17-.07-.17l-.57,2.7a54.56,54.56,0,0,1-5.05,11.3,50.38,50.38,0,0,1-3.48,5.15c-1,1.28-3.09,2.8-3,4.53a3.53,3.53,0,0,1-.12,1.86,2.78,2.78,0,0,1-.5.63c-6.32,6.6-11.88,14.8-20.8,17.95a46.21,46.21,0,0,1-16.22,2.18c-17.42-.31-33.85-9.81-37.87-27.89q-.15-.67-.26-1.36a74.24,74.24,0,0,1-.66-12.61c.05-12,.61-23.56,4.37-35a88,88,0,0,1,7.42-16.93c2-3.38,4.93-6,6.75-9.52.94-1.79.8-3.7,1.48-5.42s2.53-2.41,3.68-4.23a40.83,40.83,0,0,0,2.22-4.57,2.19,2.19,0,0,1,.77-1,2.07,2.07,0,0,1,1.08-.19l6.73.05a3.08,3.08,0,0,0,1-.11c.76-.26,3.61-5.2,3.3-5.85-.46-1-.85-2-1.21-3.06a56.14,56.14,0,0,1-2.13-7.91,54.71,54.71,0,0,1-1-11.33,48.81,48.81,0,0,1,.54-6.51c.33-2.2,1.05-4.33,1-6.57a.46.46,0,0,0-.16-.41c-.09-.09-.8-.68-.78-.82s1-7.92,6.59-8.9a15.51,15.51,0,0,1,4.33-.4l-3.38-3.56h1.88l-1.68-2.65a.21.21,0,0,1,.18-.32h8.91a.2.2,0,0,0,.17-.09c.24-.37,1.35-1.73,4.54-.93a.2.2,0,0,0,.19,0c.49-.45,2.88-3-2.18-6.4a.21.21,0,0,1,.14-.38,7.31,7.31,0,0,1,5.7,3.83.2.2,0,0,0,.06.07l2.53,1.77a.21.21,0,0,0,.33-.13,4.51,4.51,0,0,0-2-4.63c-2.61-1.83,6.88.58,6.05,4.88a.2.2,0,0,0,.34.19c1.08-1.1,3.23-2.79,5.84-2.1,3.31.87,3,6.33,2.85,7.63a.21.21,0,0,0,.25.23c1-.19,4.56-.79,5.37.05,1.5,1.58,2.29,3.85,3.9,5.33a9.51,9.51,0,0,0,2.37,1.46A42.25,42.25,0,0,0,844,21.66a.2.2,0,0,1,.14.13c.37,1,3.45,10.07-1,14.73-.06.06-1,.93-3.49,1a.21.21,0,0,0-.21.25,20.34,20.34,0,0,1-6.66,20.52c-.56.48.75,7,.86,8a2.45,2.45,0,0,1,0,1c-.46,1.47-2.56,1.21-3.66.94-.63-.16-1.34-.19-1.75-.66-.2-.22-.2-.34-.23-.28.2.29.09.8.09,1.13s0,.91,0,1.36V71.4a2.38,2.38,0,0,0,0,.73s.94,2-1.88,2h-.94s.94,3-1.88,3h-1.62c-.13,0,0,0-.13,0-.3.08-.46.48-.58.73a5.82,5.82,0,0,1-.67,1.12,5.12,5.12,0,0,1-3.21,1.69,6.76,6.76,0,0,1-2.57-.25,16.8,16.8,0,0,1-5.85-3,17.45,17.45,0,0,1-2.26-2.16.25.25,0,0,0-.08-.07h-.9c-.26,0-.61,1.76-.67,2a11.69,11.69,0,0,0-.3,3.11c0,.72.18.85.72,1.2a6,6,0,0,1,1.42,1.32,6.72,6.72,0,0,1,.72,6.2c-.24.75,3.61,5.3,4.07,6a3.62,3.62,0,0,1,.55,1,3.73,3.73,0,0,1,.1,1q0,5.82,0,11.63a.21.21,0,0,0,.11.19l1.64.86a.21.21,0,0,0,.24,0c.74-.73,4.78-5.07,5.08-5.36,3-2.94,5.75-5.88,9.56-7.73,3.58-1.74,7.9-2.64,11.71-1.1s6.4,4.81,8.29,8.25a.21.21,0,0,0,.18.11h4.5a.19.19,0,0,0,.13,0c.68-.61,7.58-6.74,10.3-4.9a5.3,5.3,0,0,0,1.88,1l3.69-1a.21.21,0,0,0,.12-.08l19.58-27.45a.21.21,0,0,1,.31,0L893.81,75a.2.2,0,0,0,.27,0l6.18-5.57a.21.21,0,0,1,.34.1c.22.85.92,2.93,1,3.21A16.18,16.18,0,0,0,904.17,78a.2.2,0,0,1,0,.24Q898.6,86.43,893,94.61l-5.54,8.09c-1.35,2-4.48,5-4.76,7.49-.09.76,0,1.52,0,2.28-.13,2.35-1.58,4.44-1.84,6.76a.21.21,0,0,1-.2.19,6.14,6.14,0,0,0-2,.93,9.14,9.14,0,0,0-.7,2.22c-.21.66-3.81,1.17-4.57,1.59-2.09,1.16-3.5,3.33-4.78,5.34-.55.87,5.1,8,5.72,8.74,2.19,2.77,4.91,6,8.33,7.08l6.47,1.94a.21.21,0,0,1,.15.16c.21,1-2.47,11.43-7.55,16-.08.07-.06-.08,0,0,.54.79,7,8.67,24.35,13.95,11,3.35,5.62,5.34,4.57,5.73a10,10,0,0,1-2.2.42l-.11,0-.68,0h-4.57l-21.29.44"/><path class="cls-1" d="M132.79,175.11c-3.45,20.32-28.48,40.29-52.77,40.29-28.36,0-44.88-23.32-65.71-23.32-9.62,0-12.88,4.85-12.88,8.77,0,3.35,3.27,6.35,8.57,6.35,3.45,0,7.15-2.08,7.64-5.43,5.79.35,8.51,4.62,8.51,9,0,6.46-5.92,10.16-12.08,10.16-6.9,0-14.06-4.5-14.06-14.66,0-19.17,22.19-25.4,35.51-25.4,31.81,0,47.47,31.17,60.17,31.17,9.25,0,12.14-19.39,13.19-25.63l3.7-22.4a25.35,25.35,0,0,1-22.32,12.7c-12.21,0-20.77-11-17.94-27.48,3.08-18.36,19.48-34.75,40.32-34.75,8.82,0,13.19,5.43,20.71,5.43,5,0,7.52-2.54,9.62-5Zm-20.16-11.95,6-35.1c1.6-9.35,1.73-13.16-5.18-13.16-8.38,0-13.5,9.52-17.14,30.88-1.23,7.27-4.38,26.61,5.79,26.61C106.59,172.4,112.44,164.26,112.63,163.17Z"/><path class="cls-1" d="M218.16,140.48c0,19.22-18.43,36.25-40.5,36.25-17.57,0-29.9-10.74-29.9-26,0-20,18.31-36.25,40.44-36.25C205.89,114.5,218.16,125.18,218.16,140.48Zm-22.5-13.62c0-6.87-1.73-11.95-7.52-11.95-13.56,0-17.88,37.23-17.88,49.64,0,6.81,2,11.78,7.46,11.78C191.34,176.33,195.66,140.42,195.66,126.86Z"/><path class="cls-1" d="M296.2,140.48c0,19.22-18.43,36.25-40.5,36.25-17.57,0-29.9-10.74-29.9-26,0-20,18.31-36.25,40.44-36.25C283.93,114.5,296.2,125.18,296.2,140.48Zm-22.5-13.62c0-6.87-1.73-11.95-7.52-11.95-13.56,0-17.88,37.23-17.88,49.64,0,6.81,2,11.78,7.46,11.78C269.38,176.33,273.69,140.42,273.69,126.86Z"/><path class="cls-1" d="M352.84,115.89l2.1-14.26c.55-3.81,2-11.26-3.27-11.26-1.79,0-4.44,1.73-6.66,3.23l-.18-.23c6.29-4.5,15.17-8.77,23.67-8.77,6.9,0,10.85,3.81,9.31,12.7l-11,66c-.25,1.5-1.6,9.12,2.47,9.12,3,0,7.21-5.37,8.08-10.79h.31c-1.6,10.16-11.34,15.47-19.85,15.47-6.78,0-13.31-1.85-13.19-13-5.05,8.08-13.32,12.7-21.33,12.7-11,0-19.48-9.24-19.48-22.74,0-20.09,17.75-39.48,40.81-39.48A26.37,26.37,0,0,1,352.84,115.89Zm-8.14,47.28,5.86-34.69c1.6-9.35,1.91-13.51-5-13.51C335.09,115,327,139.56,327,158.72c0,6.35,1.36,13.68,7.15,13.68C338.42,172.4,344.46,164.55,344.7,163.17Z"/><path class="cls-1" d="M409.68,153.59v22.33H396v-61H423q11.15,0,17.37,5.18t6.21,14.27A18.63,18.63,0,0,1,443.4,145a17.32,17.32,0,0,1-8.69,6.7l13.73,24.23H433l-12.15-22.33Zm0-28.72v19.46h12q5.15,0,8-2.58a9.12,9.12,0,0,0,2.87-7.15,9,9,0,0,0-3-7.08,11.68,11.68,0,0,0-8-2.64Z"/><path class="cls-1" d="M511.6,165.35v10.57H468.43v-61H511.6v10.53H482.07v14.72h27.87V150H482.07v15.39Z"/><path class="cls-1" d="M573.38,175.92l-5-14.8h-22.9l-5,14.8h-14l22.63-61h16l22.67,61ZM556.8,126.57l-8.36,25h17l-8.36-25Z"/><path class="cls-1" d="M605.61,114.89h25.11q14.72,0,22.9,7.91t8.17,22.37q0,14.51-8.2,22.63t-22.88,8.12H605.61Zm13.64,10.53v39.92h9.85q9.17,0,14-5.14t4.81-15q0-9.56-4.88-14.68t-13.91-5.12Z"/><path class="cls-1" d="M673.67,158.54h13.14a8.09,8.09,0,0,0,4.22,6,17.39,17.39,0,0,0,9.24,2.3,16.16,16.16,0,0,0,8.83-2.18q3.41-2.18,3.41-5.56a5.62,5.62,0,0,0-2.53-4.78q-2.53-1.82-8.45-3L693,149.57q-17.93-3.59-17.93-17a16.06,16.06,0,0,1,7-13.53q7-5.16,18-5.16,11.29,0,18,5A16.3,16.3,0,0,1,725,132.19H712.19a7.76,7.76,0,0,0-3.63-6.07,14.93,14.93,0,0,0-8.47-2.22,14.42,14.42,0,0,0-8.15,2.07,6.3,6.3,0,0,0-3.09,5.46,5.28,5.28,0,0,0,2.51,4.53q2.51,1.73,8.15,3l7.9,1.57q9.8,1.95,14.27,6.07t4.47,11.1a16.58,16.58,0,0,1-7.14,14.1Q711.88,177,699.73,177q-11.79,0-18.77-4.93A16.46,16.46,0,0,1,673.67,158.54Z"/></g></g></svg>