<?xml version="1.0" encoding="UTF-8"?>
<svg width="139px" height="110px" viewBox="0 0 139 110" version="1.1" xmlns="http://www.w3.org/2000/svg" xmlns:xlink="http://www.w3.org/1999/xlink">
    <!-- Generator: Sketch 46.2 (44496) - http://www.bohemiancoding.com/sketch -->
    <title>Monster Head</title>
    <desc>Created with Sketch.</desc>
    <defs>
        <filter x="-8.8%" y="-15.5%" width="133.3%" height="132.0%" filterUnits="objectBoundingBox" id="filter-1">
            <feOffset dx="14" dy="1" in="SourceAlpha" result="shadowOffsetOuter1"></feOffset>
            <feGaussianBlur stdDeviation="2.5" in="shadowOffsetOuter1" result="shadowBlurOuter1"></feGaussianBlur>
            <feColorMatrix values="0 0 0 0 0   0 0 0 0 0   0 0 0 0 0  0 0 0 0.12 0" type="matrix" in="shadowBlurOuter1" result="shadowMatrixOuter1"></feColorMatrix>
            <feMerge>
                <feMergeNode in="shadowMatrixOuter1"></feMergeNode>
                <feMergeNode in="SourceGraphic"></feMergeNode>
            </feMerge>
        </filter>
    </defs>
    <g id="Timeline" stroke="none" stroke-width="1" fill="none" fill-rule="evenodd">
        <g id="Timeline---with-Document-Copy" transform="translate(-829.000000, -409.000000)">
            <g id="Content" transform="translate(0.000000, 96.000000)">
                <g id="Monster" transform="translate(782.000000, 317.000000)">
                    <g id="Monster-Head" filter="url(#filter-1)" transform="translate(47.000000, 0.000000)">
                        <path d="M12.0603015,100 C11.2562814,58.0838323 25.9296482,35.7285429 56.080402,32.9341317 C86.2311558,30.1397206 103.316583,52.49501 107.336683,100" id="Path-5" stroke="#2F1A45" fill="#856794"></path>
                        <path d="M90.4522613,43.7125749 C109.748744,20.5588822 119.396985,8.98203593 119.396985,8.98203593 C119.396985,8.98203593 123.015075,35.3293413 100.100503,57.4850299" id="Path-10" stroke="#2F1A45" fill="#856794"></path>
                        <path d="M94.0703518,47.3053892 L105.527638,35.9281437 C105.125628,44.3113772 102.713568,49.9001996 98.2914573,52.6946108" id="Path-14" fill="#2F1A45"></path>
                        <ellipse id="Path" fill="#2F1A45" cx="43.718593" cy="57.1856287" rx="4.52261307" ry="4.49101796"></ellipse>
                        <ellipse id="Path" fill="#2F1A45" cx="75.0753769" cy="57.1856287" rx="4.52261307" ry="4.49101796"></ellipse>
                        <path d="M27.1356784,87.4251497 C32.6466506,91.9855434 58.4924623,100.598802 87.4371859,88.0239521 C106.733668,79.6407186 87.839196,77.0459082 30.7537688,80.239521 C23.5175879,81.0379242 22.3115578,83.4331337 27.1356784,87.4251497 Z" id="Path" fill="#2F1A45"></path>
                        <path d="M25.9296482,44.3113772 L1.20603015,0 C-1.6080402,26.746507 3.81909548,45.7085828 17.4874372,56.8862275" id="Path-11" stroke="#2F1A45" fill="#856794"></path>
                        <path d="M22.9145729,47.9041916 L13.8693467,35.3293413 C14.6733668,44.9101796 16.4824121,50.6986028 19.2964824,52.6946108" id="Path-13" fill="#2F1A45"></path>
                        <ellipse id="Oval-8" fill="#FFFFFF" cx="41.9095477" cy="55.988024" rx="1" ry="1"></ellipse>
                        <ellipse id="Oval-8" fill="#FFFFFF" cx="73.8693467" cy="55.988024" rx="1" ry="1"></ellipse>
                        <path d="M27.1356784,81.4371257 L32.5628141,86.2275449 L36.1809045,80.239521 L42.2110553,86.2275449 L46.4321608,80.239521 L52.4623116,86.2275449 L55.4773869,80.239521 L60.3015075,86.2275449 L65.1256281,80.239521 L69.3467337,85.0299401 L72.9648241,79.0419162 L78.3919598,85.0299401 L82.0100503,80.239521 L86.2311558,85.0299401 L90.4522613,80.239521 C80.8126901,79.5086978 73.9785192,79.1094962 69.9497487,79.0419162 C63.6613764,78.9364328 58.7231491,79.5565149 54.2713568,79.6407186 C47.1403161,79.775599 35.6251926,79.8583507 28.3417085,80.8383234 C27.2529575,80.9848118 26.8509474,81.1844126 27.1356784,81.4371257 Z" id="Path" fill="#FFFFFF"></path>
                        <path d="M33.1658291,89.8203593 L36.7839196,85.0299401 L41.0050251,91.6167665 L45.8291457,86.8263473 L51.2562814,93.4131737 L54.8743719,86.8263473 L59.6984925,93.4131737 L64.5226131,86.8263473 L69.3467337,91.6167665 L73.5678392,85.0299401 L77.1859296,89.2215569 L82.0100503,86.8263473 L85.0251256,88.6227545 C82.9553561,89.6466383 80.9453058,90.4450415 78.9949749,91.0179641 C73.0933687,92.7515998 64.6495671,93.8613592 60.3015075,94.011976 C56.4376763,94.1458192 47.2662648,93.8259358 41.6080402,92.8143713 C39.03106,92.3536646 36.2169897,91.3556606 33.1658291,89.8203593 Z" id="Path" fill="#FFFFFF"></path>
                    </g>
                </g>
            </g>
        </g>
    </g>
</svg>