<?xml version="1.0" encoding="utf-8"?>
<!-- Generator: Adobe Illustrator 21.1.0, SVG Export Plug-In . SVG Version: 6.00 Build 0)  -->
<svg version="1.1" id="Layer_1" xmlns="http://www.w3.org/2000/svg" xmlns:xlink="http://www.w3.org/1999/xlink" x="0px" y="0px"
	 viewBox="0 0 587.2 63.2" style="enable-background:new 0 0 587.2 63.2;" xml:space="preserve">
<style type="text/css">
	.st0{fill:#333333;}
</style>
<title>white-words</title>
<g id="Layer_2">
	<g id="Layer_2-2">
		<path class="st0" d="M26.3,62.3h-5.8v-56H0V1h46.8v5.2H26.3V62.3z"/>
		<path class="st0" d="M60,37.2v25.1h-5.8V1h21.9c6,0,10.8,1.6,14.3,4.9s5.3,7.6,5.3,13c0.1,4-1.1,7.9-3.5,11.1
			c-2.4,3.1-5.8,5.3-9.6,6.2l14.8,26h-6.8L76.6,37.1L60,37.2L60,37.2z M60,6.2V32h15.6c4.4,0,7.9-1.1,10.4-3.4
			c2.5-2.3,3.7-5.5,3.7-9.6c0-4-1.3-7.2-3.8-9.5c-2.5-2.3-6-3.4-10.5-3.4H60z"/>
		<path class="st0" d="M142.1,57v5.3h-37V1h37v5.2h-31.2v22h29.6v5.2h-29.6V57H142.1z"/>
		<path class="st0" d="M177.7,62.3h-5.8L149,1h6.2l19.5,54h0.2l19.6-54h6.1L177.7,62.3z"/>
		<path class="st0" d="M231.9,0c8.6,0,15.3,2.8,20.3,8.5c5,5.7,7.5,13.4,7.5,23.1c0,9.7-2.5,17.4-7.5,23.1c-5,5.7-11.8,8.5-20.3,8.5
			c-8.6,0-15.3-2.8-20.3-8.5s-7.5-13.4-7.5-23.1c0-9.7,2.5-17.4,7.5-23.1S223.4,0,231.9,0z M247.9,12.5c-3.9-4.7-9.3-7.1-16-7.1
			s-12.1,2.4-16,7.1c-3.9,4.7-5.9,11.1-5.9,19.1s2,14.4,5.9,19.1c3.9,4.7,9.3,7.1,15.9,7.1s12-2.4,16-7.1c3.9-4.7,5.9-11.1,5.9-19.1
			S251.8,17.2,247.9,12.5L247.9,12.5z"/>
		<path class="st0" d="M274.5,37.2v25.1h-5.8V1h21.9c6,0,10.8,1.6,14.3,4.9s5.3,7.6,5.3,13.1c0.1,4-1.1,7.9-3.5,11.1
			c-2.4,3.1-5.8,5.3-9.6,6.2l14.8,26h-6.8l-14.1-25.1L274.5,37.2L274.5,37.2z M274.5,6.2V32h15.7c4.4,0,7.9-1.1,10.4-3.4
			s3.7-5.5,3.7-9.6c0-4-1.3-7.2-3.8-9.5s-6-3.4-10.5-3.4H274.5z"/>
		<path class="st0" d="M360.3,62.3H340V1h19.7c5.3,0,9.7,1.4,13,4.1c3.3,2.6,5.1,6.6,5,10.7c0.1,3.5-1.1,6.9-3.3,9.6
			c-2.4,2.7-5.6,4.5-9.1,5.1v0.2c4.2,0.3,8.2,2,11.3,4.8c3,2.8,4.6,6.7,4.4,10.7c0.2,4.6-1.9,8.9-5.5,11.7
			C371.7,60.8,366.7,62.3,360.3,62.3z M342.1,2.9v26.8h17c4.9,0,8.9-1.3,11.9-3.8c3-2.5,4.6-6.2,4.5-10.1c0.1-3.6-1.5-7.1-4.4-9.4
			c-2.9-2.4-6.8-3.5-11.6-3.5L342.1,2.9z M342.1,60.3h18.1c5.8,0,10.3-1.3,13.6-3.8c3.3-2.4,5.1-6.3,5-10.3
			c0.1-4.2-1.8-8.1-5.2-10.5c-3.5-2.6-8.2-3.9-14.3-3.9h-17.2V60.3z"/>
		<path class="st0" d="M406.2,62.3h-2.1V35.5L381.6,1h2.5l20.9,32.2h0.2L426.1,1h2.5l-22.4,34.5V62.3z"/>
		<path class="st0" d="M436.9,35.5v26.8h-2.1V1h19c6.2,0,11,1.5,14.5,4.6c3.5,3.1,5.2,7.3,5.3,12.7c0.1,4.1-1.3,8.1-3.9,11.2
			c-2.8,3.1-6.7,5.1-10.8,5.7l16.2,27.2h-2.4l-16-26.8c-1,0.1-2,0.1-2.8,0.1L436.9,35.5z M436.9,3v30.6h16.9c5.5,0,9.8-1.4,12.9-4.1
			s4.7-6.5,4.7-11.2c0-4.8-1.6-8.6-4.7-11.2s-7.4-4-13-4L436.9,3z"/>
		<path class="st0" d="M506.9,0.1c8.2,0,14.8,2.8,19.7,8.5s7.3,13.3,7.3,23c0,9.7-2.4,17.3-7.3,23c-4.9,5.7-11.4,8.5-19.7,8.5
			c-8.3,0-14.9-2.8-19.7-8.5s-7.3-13.3-7.3-23c0-9.6,2.4-17.3,7.3-23C492.1,2.9,498.6,0.1,506.9,0.1z M506.9,2.1
			c-7.6,0-13.7,2.7-18.2,8S482,22.6,482,31.6c0,9,2.2,16.2,6.8,21.5s10.5,8,18.1,8c7.6,0,13.6-2.7,18.1-8s6.8-12.5,6.8-21.5
			c0-9-2.2-16.2-6.8-21.5S514.5,2.1,506.9,2.1L506.9,2.1z"/>
		<path class="st0" d="M544,62.3h-2.1V1h2.3l40.7,57.2h0.2V1h2.1v61.3h-2l-41-57.7H544V62.3z"/>
	</g>
</g>
</svg>
