<svg xmlns="http://www.w3.org/2000/svg" viewBox="0 0 16 15.73"><defs><style>.cls-1{fill:#57bb89;}</style></defs><title>favicon</title><g id="Layer_2" data-name="Layer 2"><g id="Layer_2-2" data-name="Layer 2"><path class="cls-1" d="M16.25,15.95v0a1,1,0,0,1-.11-.21c-.1-.22-.2-.44-.31-.65a2.36,2.36,0,0,0-1-1.05c-.68-.34-1.34-.71-2-1-.19-.09-.37-.21-.57-.3a1.86,1.86,0,0,0-.3-.12c-.06,0-.19,0-.24,0s-.11-.23-.15-.32a2.34,2.34,0,0,0-.22-.41,1,1,0,0,0-.57-.44l-.12-.11a3.83,3.83,0,0,1-.05-.69,1.23,1.23,0,0,0,.33-.74V9.15l0-.27a.45.45,0,0,0,0,.17.15.15,0,0,0,.16.06c.31,0,.42-.54.42-.54a2.05,2.05,0,0,1,.19-.81,3.54,3.54,0,0,0,0-.69c0-.12-.12-.12-.12-.12l0-.5.15.12-.12-.23c0-.08-.15-.5-.15-.5l.19.08-.27-.39s.42.35.35.27-.42-.54-.42-.54l-.19-.31.08-.39a2.73,2.73,0,0,0-.35-.85A3.75,3.75,0,0,0,6.81,2.1C3.34,3.44,5,5.57,5,5.57v.69h.12l-.08.12a2.77,2.77,0,0,0,0,.77l0-.08,0,0v.15l0,.23.08,0,0,.19a3.62,3.62,0,0,0,0,1.11.41.41,0,0,0,.09.2c.35.39.46,0,.46,0a2.9,2.9,0,0,0,.31,1.77L6,11.37H6a1.06,1.06,0,0,0-.23.14,4.25,4.25,0,0,0-.65.64c-.08.09-.15.19-.24.28l-.11.12,0,0c-.42-.12-.77.34-1,.64a3.1,3.1,0,0,1-.4.23c-.16.09-.31.19-.47.28l-.87.56a4.94,4.94,0,0,0-1.28,1,2.7,2.7,0,0,1-.32.41s-.06,0-.08.06l-.13.14V.25h16Z" transform="translate(-0.25 -0.25)"/></g></g></svg>