<svg xmlns="http://www.w3.org/2000/svg" viewBox="0 0 594.39 658.07"><defs><style>.cls-1{fill:#57bb89;}.cls-2,.cls-3,.cls-5{fill:none;}.cls-2,.cls-3{stroke:#999;stroke-linecap:round;stroke-width:0.75px;}.cls-2{stroke-linejoin:round;}.cls-3,.cls-5{stroke-miterlimit:10;}.cls-4{fill:#999;}.cls-5{stroke:#000;}.cls-6{fill:#333;}</style></defs><title>GreenLogoFace</title><g id="Layer_2" data-name="Layer 2"><g id="Layer_2-2" data-name="Layer 2"><path class="cls-1" d="M594.25,583.25l.16,1c-3-5-.94-1.06-4.14-7.9-3.77-8.05-7.36-16.18-11.54-24-8.6-16.17-20.16-30.82-36.82-39.16-25.07-12.56-49.68-26.51-75-38.41-7.2-3.36-13.91-7.66-21-11.16a69.08,69.08,0,0,0-11-4.47c-2.27-.67-7-.29-8.81-1.59-3-2.14-4-8.66-5.43-11.91a86.76,86.76,0,0,0-8.05-15.25c-4.67-6.81-12.56-15.26-21.17-16.49l-4.5-4.13s-3-19.29-2-25.64c6.35-7.14,11.52-16,12.32-27.52V330.81l.66-10a16.7,16.7,0,0,0,1.82,6.4c1.16,2.23,3.87,2.43,6.12,2.15,11.45-1.43,15.75-20.05,15.75-20.05,0-15.75,7.16-30.07,7.16-30.07s2.86-21.47,1.43-25.77-4.3-4.3-4.3-4.3l-1.43-18.61,5.73,4.29-4.3-8.59c-1.43-2.86-5.72-18.61-5.72-18.61l7.16,2.86-10-14.32s15.75,12.89,12.89,10-15.75-20.05-15.75-20.05l-7.16-11.46,2.86-14.32c-1.43-12.88-12.89-31.5-12.89-31.5C328.5,38.7,244,68.77,244,68.77c-128.87,50.12-65.87,128.87-65.87,128.87v25.78h4.3l-2.87,4.3c-2.86,4.29-1.43,28.63-1.43,28.63l1.43-2.86,1.43,1.43v5.73l-1.43,8.59,2.87-1.43,1.43,7.16c-1.27,13.95-1.84,27.36,1.12,41.19.61,2.87,1.28,5.39,3.17,7.49,12.89,14.32,17.19,0,17.19,0-2.87,45.83,11.45,65.87,11.45,65.87s-2,11.5-4.28,23.65l-.05.29a39.31,39.31,0,0,0-8.38,5.28c-9,6.79-16.8,15.11-24.09,23.63-2.95,3.45-5.6,7.21-8.8,10.42-1.44,1.44-2.81,2.87-4.14,4.32l.84-1.36c-15.58-4.33-28.43,12.78-35.89,23.93,1.25-.06-9,5.27-14.86,8.38s-11.64,7-17.42,10.52c-11,6.71-21.68,13.78-32.46,20.76-16.5,10.69-35,20.69-47.35,36.4-4,5-6.84,11.08-11.73,15.3-1,.82-2.29,1.19-3.09,2.16-1.7,2-3.7,4-4.7,5l-.16-.83V.25h594Z" transform="translate(-0.02 -0.25)"/><path class="cls-2" d="M185.05,471.14s20-27.21,21.48-30.07,10-51.55,10-51.55-14.32-20-11.46-65.87c0,0-4.3,14.32-17.18,0-1.9-2.11-2.56-4.62-3.17-7.49-3-13.83-2.39-27.24-1.12-41.19l-1.43-7.16-2.86,1.43,1.43-8.59v-5.73l-1.43-1.43-1.43,2.86s-1.43-24.34,1.43-28.64l2.86-4.3h-4.3V197.64c0-.27-.74-1-.9-1.2-.82-1.13-1.59-2.3-2.33-3.48a83.88,83.88,0,0,1-6.55-12.8,75.63,75.63,0,0,1-5.08-18.9,63.06,63.06,0,0,1,1.2-23,67.93,67.93,0,0,1,12.27-25c7.68-10,17.59-18.21,28.15-25,13.57-8.78,28.64-17.11,44.45-21a115.64,115.64,0,0,1,17.5-2.81,132.31,132.31,0,0,1,26.73.42,134,134,0,0,1,32.93,8.2,146.08,146.08,0,0,1,36.08,20.54A188.46,188.46,0,0,1,397,128.91s11.46,18.62,12.89,31.5L407,174.73l7.16,11.46s12.89,17.18,15.75,20-12.89-10-12.89-10l10,14.32-7.16-2.86s4.3,15.75,5.73,18.62l4.3,8.59-5.73-4.3,1.43,18.62s2.86,0,4.3,4.3-1.43,25.77-1.43,25.77-7.16,14.32-7.16,30.07c0,0-4.3,18.62-15.75,20-2.76.34-4.6-.31-5.81-1.49-3.82-3.75-1.35-12.83-1.35-12.83l4.3-27.21h1.43l1.43,2.86v7.16l-1.43,4.3v1.43l2.86-1.43h4.3l2.86-7.16-1.43-8.59-4.3-7.16v7.16l-5.73-2.86v-35.8l-1.43-14.32,1.43-20s1.43-21.48-8.59-40.09c-4.15-7.71-11-14.72-17.13-20.85-14.3-14.39-31.55-26-50.74-32.76a117.16,117.16,0,0,0-21.17-5.28c-10.5-1.6-20-2.35-30.13.93a172.39,172.39,0,0,0-19.12,7.46c-17.88,8.22-34.89,19.57-47.21,35.11a81.12,81.12,0,0,0-16.4,35.45l-8.59,21.48,1.43,7.16,2.86-8.59,10-15.75s34.37-47.25,87.35-45.82c0,0,64.44,0,78.76,11.46,0,0,17.18,10,15.75,24.34a14.58,14.58,0,0,1-7.93,11.65c-3.08,1.62-7,3.15-10.58,2.55-2.86-.48-5.77-2.12-8.59-2.94-7.78-2.26-16.53-3.62-24.45-1.24-9.61,2.88-18.61,5.66-28.65,5.77-6,.07-13-5.84-18.48-8.08-7-2.83-15.53-5.67-23-3.42,0,0-15.75,5.73-20-5.73-4.2-11.2,10.65-23.08,19.84-25.72a114.42,114.42,0,0,1,20.67-3.77c27.28-2.64,55,1.82,81.2,9.45,0,0,35.8,12.89,35.8,57.28s-17.18,32.93-17.18,32.93l-14.32-10s-22.91-20-40.09,4.3h10L364,249.19l5.73,4.3,4.3,5.73,1.43,2.86-7.16-1.43s-7.16-2.86-14.32-1.43-35.8-7.16-35.8-7.16,12.89-31.5,48.69-8.59l8.59,4.3h2.86s17.18,0,7.16-17.18S341.13,212,341.13,212s-25.77,2.86-27.21,22.91c0,0-2.86,14.32,0,21.48s15.75,22.91,15.75,22.91,12.89,14.32,0,22.91a12.34,12.34,0,0,1-1.56-.94,35.71,35.71,0,0,0-4.08-2c-3.45-1.4-7.49-2.44-11.17-1.35-5.39,1.59-6.35,6.68-7.53,11.42a19.48,19.48,0,0,1-10,0s-1.43-21.48-24.34-7.16c0,0-11.46-4.3-7.16-14.32L271,280.7s0-2.86-4.3,0-27.21,38.66-30.07,50.12-25.77-24.34-25.77-24.34-12.89-24.34,18.62-27.21l31.5-2.86s20-8.59,21.48-18.62a194.93,194.93,0,0,0,1.43-22.91s-7.16-31.5-44.39-22.91S208,260.65,208,260.65l8.59-2.86,10-7.16s17.18-25.77,50.12-7.16l-15-3.72s12.18,6.58,12.18,9.44-41.53,1.43-43,0-8.59,8.59-8.59,8.59l-7.16,12.89s-1.43-2.86,7.16-7.16l2.86-2.86s15.75,8.59,35.8,0l-12.89,7.16s-25.77-1.43-34.37,8.59c0,0-12.89,8.59-10,18.62,0,0-4.3,4.3,12.89,34.37,0,0,18.62,48.69,27.21,61.57S265.24,429.62,268.1,431s25.77,15.75,57.28,0c0,0,15.75-20-12.89-30.07a38.86,38.86,0,0,0-30.76,2.33,53.25,53.25,0,0,0-10.23,6.9c-2.36,2-7,5.34-7.58,8.41-.92,4.53,4.28,9.06,7.76,11,6.62,3.67,14.78,4.3,22.19,4.3,31.5,0,40.09-7.16,40.09-7.16s15.48-12.76,38.66-31.5c10.6-8.57,23.05-20.27,24.34-38.66V330.81s-7.16-8.59-5.73-11.46,1-7.56,1.09-10.73q.15-6.1.3-12.2c0-1.57.35-3.28-.26-4.67-1-2.24-3.95-4.51-5.7-6.09-7.7-6.95-17.87-11.52-28.37-9.27-20,4.29-20,7.16-20,7.16,0,9.47,7.14,17.41,14.81,21.84,6.65,3.84,13.74,9.14,16.82,16.42a15.81,15.81,0,0,1,1.3,6.13s2.86,15.75-15.75,31.5A284.36,284.36,0,0,1,331,377.71q-5.08,3.43-10.25,6.72c-2.73,1.73-5.43,4.3-8.69,5-3.71.78-8.15.12-12,.12-7.76,0-14,.7-21.07-3-5.1-2.63-10.12-5.35-15-8.41-10.37-6.53-23-15.26-27.1-27.46q-.21-.63-.38-1.27s10-2.86,10-17.18a50.39,50.39,0,0,0,14.32-5.73c7.16-4.3,32.93-5.73,32.93-5.73h11.46s40.09,2.86,45.82,7.16,5.73,11.46,5.73,11.46-4.3,1.43-5.73,4.3a26.72,26.72,0,0,1-4.3,5.73,164.36,164.36,0,0,1-15.92,8.8c-8.79,4.26-19.95,8.7-30.05,9.82l-21.48,1.43s-11.3,2.85-29.92-21.49v-7.16l4.3,2.86s14.32,11.46,15.75,12.89,18.62-1.43,24.34,2.86c0,0,17.18-5.73,35.8-4.3L344,343.7l4.3-7.16S291,340.84,252.35,338c0,0-2.86-2.86,0-4.3s22.91-4.3,28.64-4.3h20a50.63,50.63,0,0,1,8.59-1.43c2.86,0,28.64,4.3,32.93,4.3l8.59,1.43s5.73,0,5.73-4.3-4.3-10-4.3-10,0-2.86,5.73,0c4.4,2.2,9.31,3.28,13.81,5.26,2.08.91,4.51,2,6.08,3.65,2.13,2.31,2.23,6,2.72,9a6.92,6.92,0,0,1,.1,2.34,7.13,7.13,0,0,1-.54,1.55c-6.24,14.29-12.33,28.68-19.31,42.63-6.48,9.26-13.16,18.55-18.64,28.45-.63,1.14-1.25,2.29-1.95,3.38-2.26,3.52-5.34,6.53-8.05,9.69,0,0-35.8,37.23-83.05-10,0,0-24.34-18.62-27.21-18.62s-7.16,28.64-7.16,28.64l-7.16,20-7.16,34.37-4.3,10" transform="translate(-0.02 -0.25)"/><path class="cls-3" d="M338.4,239.4s-3,8.36,1.3,9.79,15.8.41,15.8.41,2.91-5.14,0-8.5C355.5,241.1,344.26,236.78,338.4,239.4Z" transform="translate(-0.02 -0.25)"/><path class="cls-3" d="M258.62,250.85s8.05-8.81-3.4-11.68a67.74,67.74,0,0,0-10.4,2l-1.41.42a30.23,30.23,0,0,0-9.67,4.7l-1.43,1.43,11.46,1.43a6.92,6.92,0,0,1,0-5.73" transform="translate(-0.02 -0.25)"/><path class="cls-2" d="M338.27,339.41l2.27-.38,6.25-1a39.91,39.91,0,0,1-4.3,5.56,22.72,22.72,0,0,1-4.23,3v-5.69a20.35,20.35,0,0,1,4,0,3.19,3.19,0,0,1-1.11,1.38H339.7l4.3-2.86-1.43,2.86-2.86,1.43" transform="translate(-0.02 -0.25)"/><polyline class="cls-2" points="250.9 339.15 258.06 339.15 259.49 346.31 255.2 343.45 250.9 340.59 255.2 340.59 256.63 342.02 255.2 342.02 253.76 342.02 256.63 340.59 258.06 343.45 256.63 343.45 255.2 339.15 258.06 344.88 256.63 340.59 256.63 340.59"/><path class="cls-2" d="M269.54,356.59s35.21-3,59.13-1.5" transform="translate(-0.02 -0.25)"/><path class="cls-3" d="M269.54,355.16" transform="translate(-0.02 -0.25)"/><path class="cls-4" d="M256.4,342.11a1.13,1.13,0,0,0,0-2.25,1.13,1.13,0,0,0,0,2.25Z" transform="translate(-0.02 -0.25)"/><path class="cls-4" d="M252.35,341.27a1.13,1.13,0,0,0,0-2.25,1.13,1.13,0,0,0,0,2.25Z" transform="translate(-0.02 -0.25)"/><path class="cls-4" d="M251.51,341.13a1.13,1.13,0,0,0,0-2.25,1.13,1.13,0,0,0,0,2.25Z" transform="translate(-0.02 -0.25)"/><path class="cls-4" d="M251.23,341a1.13,1.13,0,0,0,0-2.25,1.13,1.13,0,0,0,0,2.25Z" transform="translate(-0.02 -0.25)"/><path class="cls-4" d="M251.09,340.85a1.13,1.13,0,0,0,0-2.25,1.13,1.13,0,0,0,0,2.25Z" transform="translate(-0.02 -0.25)"/><path class="cls-4" d="M251,340.43a1.13,1.13,0,0,0,0-2.25,1.13,1.13,0,0,0,0,2.25Z" transform="translate(-0.02 -0.25)"/><path class="cls-4" d="M342.19,341.27a1.13,1.13,0,0,0,0-2.25,1.13,1.13,0,0,0,0,2.25Z" transform="translate(-0.02 -0.25)"/><path class="cls-4" d="M340.57,340.15a3.35,3.35,0,0,1-1.17,2.37c-1.08,1,.52,2.56,1.59,1.59a5.63,5.63,0,0,0,1.83-4c.07-1.45-2.18-1.44-2.25,0Z" transform="translate(-0.02 -0.25)"/><path class="cls-4" d="M344.29,340.85a1.13,1.13,0,0,0,0-2.25,1.13,1.13,0,0,0,0,2.25Z" transform="translate(-0.02 -0.25)"/><path class="cls-4" d="M343.34,337.9a1.65,1.65,0,0,0-1.08.25c-.24.15-.4.48-.62.6q.27.1-.14,0a1.6,1.6,0,0,0-.55,0,1.62,1.62,0,0,0-.89.35,2.08,2.08,0,0,0-.6,1.76,6.6,6.6,0,0,1-.67,2.91c-.63,1.3,1.31,2.44,1.94,1.14a9.52,9.52,0,0,0,.76-2,4.65,4.65,0,0,0,.22-2q.08-.55-.54.12l.3,0a2,2,0,0,0,.83,0,3.48,3.48,0,0,0,1-.82c1.44.13,1.43-2.12,0-2.25Z" transform="translate(-0.02 -0.25)"/><path class="cls-3" d="M259.51,339.41s0,10,2.86,11.46" transform="translate(-0.02 -0.25)"/><path class="cls-3" d="M338.46,337.52s-.92,11.26-2.7,13" transform="translate(-0.02 -0.25)"/><path class="cls-4" d="M253.07,342.27a3.79,3.79,0,0,1,2.67,2.09,1.5,1.5,0,0,0,2.59-1.51,6.66,6.66,0,0,0-4.46-3.46c-1.88-.42-2.68,2.47-.8,2.89Z" transform="translate(-0.02 -0.25)"/><path class="cls-4" d="M250.44,339.8a7.7,7.7,0,0,0,6.68,1.84l-.8-2.89-.23.07c-1.84.56-1.06,3.46.8,2.89l.23-.07a1.5,1.5,0,0,0-.8-2.89,4.47,4.47,0,0,1-3.76-1.07c-1.44-1.28-3.57.84-2.12,2.12Z" transform="translate(-0.02 -0.25)"/><path class="cls-4" d="M250.52,341.23a1.5,1.5,0,0,0,0-3,1.5,1.5,0,0,0,0,3Z" transform="translate(-0.02 -0.25)"/><path class="cls-4" d="M254,341.5a6.14,6.14,0,0,1,1.93.21,1.08,1.08,0,0,1,.22.11s-.2-.3-.24-.27-.15.92-.18,1l1.45-1.1c.37,0,.32.16.52.34s-.32.32,0,0a3.93,3.93,0,0,1,.46-.43,1.55,1.55,0,0,0,.54-2.05,1.51,1.51,0,0,0-2.05-.54,4,4,0,0,0-2,3.14,2.63,2.63,0,0,0,2.49,2.59,1.52,1.52,0,0,0,1.45-1.1c.42-1.39.54-3.1-.8-4a6,6,0,0,0-3.83-.84,1.54,1.54,0,0,0-1.5,1.5,1.51,1.51,0,0,0,1.5,1.5Z" transform="translate(-0.02 -0.25)"/><path class="cls-4" d="M255.28,343.09c1.36-.2,1.62,1.88,2.23,2.65s1.58,1.47,2.26,2.38a.38.38,0,0,0,.65-.38,3.53,3.53,0,0,0-1.77-1.67c-.92-.53-1.39-1.48-2.34-2a.38.38,0,0,0-.45.59,11,11,0,0,0,3.12,2.72.38.38,0,0,0,.56-.32,23,23,0,0,0-.45-3.42c-.09-.42-.73-.31-.74.1l0,1.35a.38.38,0,0,0,.74.1c.44-1.52,2-6.54-.71-6.75a.38.38,0,0,0-.36.47c.07.23.43.79.48,1a4.17,4.17,0,0,1-.18,2.6c-.16.45.56.65.72.2a5.19,5.19,0,0,0,.45-2.08c-.06-.75-.53-1.18-.74-1.9l-.36.47c1.59.13.21,5.07,0,5.8l.74.1,0-1.35-.74.1a21.7,21.7,0,0,1,.43,3.22l.56-.32a10.52,10.52,0,0,1-3-2.6l-.45.59c.79.4,1.16,1.21,1.87,1.7s1.52.75,2,1.65l.65-.38a12.3,12.3,0,0,0-1.35-1.61,8.06,8.06,0,0,1-1.75-2.46,2,2,0,0,0-2.23-1.3c-.48.07-.27.79.2.72Z" transform="translate(-0.02 -0.25)"/><path class="cls-4" d="M338.87,337.85a35.4,35.4,0,0,1-1.75,10.38.38.38,0,0,0,.69.29c.71-1.33,2-2,3.09-2.91a32.83,32.83,0,0,0,3.21-3.2l-.59-.45c-.56,1.27-1.65,2.76-3.11,3.05-1.15.23-.92,0-1-.92-.11-.74.05-1.71,0-2.46a2.53,2.53,0,0,1,.51-2.19c.71-1,1.14-.91,2.25-1.08l5-.75-.2-.72a12.9,12.9,0,0,1-7.22.4l-.1.74a18.57,18.57,0,0,0,2.13.09c.92,0,3.19-1.16,2.27,2.1-.21.74-1.53,2-1.93,2.72-.23.43.42.81.65.38a40.26,40.26,0,0,1,2.54-3.41,1.9,1.9,0,0,0,.38-1.84,1.85,1.85,0,0,0-1.52-1c-1.49-.2-3,.4-4.52.19-.42-.06-.51.64-.1.74a13.65,13.65,0,0,0,7.62-.4.38.38,0,0,0-.2-.72l-5,.75c-.93.14-2.31.08-3,.91a3.1,3.1,0,0,0-.41,2,39.42,39.42,0,0,1-.13,5.18.38.38,0,0,0,.38.38,6.15,6.15,0,0,0,5.34-3.77c.16-.36-.28-.8-.59-.45a32.16,32.16,0,0,1-4.22,4,7.16,7.16,0,0,0-2.2,2.29l.69.29a36,36,0,0,0,1.78-10.58.38.38,0,0,0-.75,0Z" transform="translate(-0.02 -0.25)"/><path class="cls-5" d="M212.47,413.46" transform="translate(-0.02 -0.25)"/><path class="cls-5" d="M202.76,447.06" transform="translate(-0.02 -0.25)"/><path class="cls-6" d="M26.35,657.34H20.53v-56H0v-5.27H46.86v5.27H26.35Z" transform="translate(-0.02 -0.25)"/><path class="cls-6" d="M60,632.24v25.1H54.21V596.06H76.12q9,0,14.29,4.86T95.75,614a18,18,0,0,1-3.48,11.13,16.84,16.84,0,0,1-9.64,6.2l14.82,26H90.69l-14.1-25.1H60Zm0-31V627.1H75.66q6.67,0,10.38-3.4t3.72-9.56q0-6.07-3.8-9.49t-10.51-3.42Z" transform="translate(-0.02 -0.25)"/><path class="cls-6" d="M142.12,652.08v5.27h-37V596.06h37v5.27H110.91v22h29.64v5.18H110.91v23.53Z" transform="translate(-0.02 -0.25)"/><path class="cls-6" d="M177.71,657.34h-5.78L149,596.06h6.16l19.54,54.06h.25l19.58-54.06h6.12Z" transform="translate(-0.02 -0.25)"/><path class="cls-6" d="M231.9,595.08q12.83,0,20.34,8.54t7.52,23.1q0,14.57-7.52,23.08t-20.34,8.51q-12.83,0-20.32-8.51t-7.49-23.08q0-14.57,7.52-23.1T231.9,595.08Zm16,12.49q-5.92-7.09-16-7.09t-16,7.09q-5.9,7.09-5.9,19.15T216,645.83q5.92,7.09,15.95,7.09t16-7.09q5.92-7.09,5.92-19.11T247.89,607.57Z" transform="translate(-0.02 -0.25)"/><path class="cls-6" d="M274.54,632.24v25.1h-5.78V596.06h21.91q9,0,14.29,4.86T310.3,614a18,18,0,0,1-3.48,11.13,16.84,16.84,0,0,1-9.64,6.2l14.82,26h-6.75l-14.1-25.1H274.54Zm0-31V627.1h15.67q6.67,0,10.38-3.4t3.71-9.56q0-6.07-3.8-9.49T290,601.24Z" transform="translate(-0.02 -0.25)"/><path class="cls-6" d="M360.33,657.34H340V596.06h19.71q8,0,13,4.1a13.23,13.23,0,0,1,5,10.72,14.3,14.3,0,0,1-3.33,9.58,15.47,15.47,0,0,1-9.11,5.08v.17a18.71,18.71,0,0,1,11.28,4.82,14,14,0,0,1,4.44,10.72A14.17,14.17,0,0,1,375.4,653Q369.88,657.34,360.33,657.34ZM342.15,598v26.84h17q7.39,0,11.87-3.8a12.62,12.62,0,0,0,4.48-10.13,11.47,11.47,0,0,0-4.37-9.36q-4.38-3.55-11.6-3.55Zm0,57.38h18.09q8.67,0,13.63-3.84a13.24,13.24,0,0,0-.25-20.87q-5.22-3.86-14.31-3.86H342.15Z" transform="translate(-0.02 -0.25)"/><path class="cls-6" d="M406.24,657.34h-2.12v-26.8l-22.47-34.49h2.55l20.89,32.19h.17l20.85-32.19h2.51l-22.38,34.49Z" transform="translate(-0.02 -0.25)"/><path class="cls-6" d="M436.9,630.59v26.76h-2.12V596.06h19q9.17,0,14.44,4.61t5.27,12.68a16.34,16.34,0,0,1-3.91,11.17,17.87,17.87,0,0,1-10.83,5.65L475,657.34h-2.42l-16-26.84q-1.53.09-2.8.08Zm0-32.53v30.58h16.86q8.2,0,12.89-4.1t4.69-11.19q0-7.22-4.67-11.25t-13-4Z" transform="translate(-0.02 -0.25)"/><path class="cls-6" d="M506.93,595.21q12.36,0,19.68,8.52t7.33,23q0,14.48-7.3,23t-19.71,8.52q-12.45,0-19.73-8.52t-7.28-23q0-14.44,7.3-23T506.93,595.21Zm0,2q-11.43,0-18.16,8T482,626.68q0,13.51,6.75,21.51t18.13,8q11.34,0,18.11-8t6.77-21.51q0-13.5-6.75-21.49T506.93,597.21Z" transform="translate(-0.02 -0.25)"/><path class="cls-6" d="M544,657.34h-2.12V596.06h2.33l40.69,57.25h.17V596.06h2.13v61.28h-2l-41.07-57.72H544Z" transform="translate(-0.02 -0.25)"/><path class="cls-5" d="M212.47,413.46" transform="translate(-0.02 -0.25)"/><path class="cls-5" d="M202.76,447.06" transform="translate(-0.02 -0.25)"/></g></g></svg>