<?xml version="1.0" encoding="utf-8"?>
<!-- Generator: Adobe Illustrator 21.1.0, SVG Export Plug-In . SVG Version: 6.00 Build 0)  -->
<svg version="1.1" id="Layer_1" xmlns="http://www.w3.org/2000/svg" xmlns:xlink="http://www.w3.org/1999/xlink" x="0px" y="0px"
	 viewBox="0 0 1087 369.6" style="enable-background:new 0 0 1087 369.6;" xml:space="preserve">
<style type="text/css">
	.st0{fill:none;stroke:#d8d8d8;stroke-miterlimit:10;}
	.st1{fill:none;stroke:#FED586;stroke-width:4;stroke-linecap:round;stroke-miterlimit:10;}
	.st2{fill:#333333;}
	.st3{fill:#FED586;}
  #map {
  stroke-dasharray:4000;
  stroke-dashoffset:0;
  -webkit-animation: dash 4s linear forwards;
  }
  @-webkit-keyframes dash {
  from {
  stroke-dashoffset: 4000;
  }
  to {
  stroke-dashoffset: 0;
  }
  }
  #line {
  stroke-dasharray:4000;
  stroke-dashoffset:0;
  -webkit-animation: dash 15s linear forwards;
  }
  @-webkit-keyframes dash {
  from {
  stroke-dashoffset: 4000;
  }
  to {
  stroke-dashoffset: 0;
  }
  }
</style>
<title>map_1</title>
<g id="Layer_2">
	<g id="Layer_1-2">
		<path id="map"  class="st0" d="M955.6,365.9h9.3c0,0,6.2,1.5,12.4-4.7l9.3-14l4.7-3.1v-9.3l1.5-1.5l6.2-6.2v-6.2l-1.5-6.2l7.8-9.3l4.7-1.5
			l6.2-6.2v-15.6l-3.1-4.7V271l-3.1-4.7l6.2-10.9l9.3-10.9l9.3-6.2l9.3-9.3l7.8-17.1v-3.1l-1.6-1.6l-4.7,1.6l-15.6,3.1l-4.7-3.1
			v-1.6l-1.5-3.1l-7.8-6.2l-3.1-3.1l-4.7-9.3l-3.1-14l-4.7-3.1l-7-17.4l-2.3-5.9l4.7,6.2l1.5-3.1l-1.5-9.3h-6.2l-4.7-1.6l-4.7,1.6
			h-6.2l-9.3-3.1l-7.8-3.1h-4.7l-4.7,3.1v4.7h-4.7l-9.3-3.1v-3.1l-7.8-3.1h-4.7l-4.6-3.1l1.5-4.7v-4.7l1.5-1.6h-3.1l-1.5-3.1
			l-4.7,1.6H898l-10.9,1.6l-10.9,6.2H870l-4.7-1.6l-1.5-1.6l-4.6,7.8l-6.2,4.6l-3.1,4.7l1.5,4.7l-3.1,6.2l-7.8,3.1l-3.1,3.1
			l-3.1,4.7l-3.1,7.8l-4.7,3.1v6.2l1.5,3.1l1.5,9.3l-1.5,6.2l-1.5,3.1v3.1l1.5,4.7l3.1,1.6l1.5,4.7l6.2,4.7l1.5,3.1v3.1l14,7.8
			l4.7,1.6l4.7-1.6l6.2-1.6l6.2,1.6l10.9-4.7H898l3.1,6.2H912l3.1,4.7l-1.5,6.1l-1.6,6.3l6.2,12.4l4.7,4.7l3.1,7.8v3.1l1.5,3.1
			l1.5,3.1l-1.5,4.7l-3.1,3.1l-3.1,10.9l3.2,10.9l4.7,7.8v9.3l4.7,9.3l6.2,9.3l1.5,4.7l1.5,4.7l-1.5,3.1v3.1l3.1,1.6l3.1,3.1
			c0,0,2.1-1,4.1-1.9c0.4-0.2,0.7-0.3,1-0.4l1.8-0.5"/>
		<polyline id="map" class="st0" points="980.5,0.5 974.2,2 960.2,3.6 960.2,8.3 963.3,9.8 963.3,16 960.2,16
			958.7,14.5 954,14.5 952.5,17.6 952.5,26.9 947.8,33.1 944.7,34.7 943.1,30 927.6,34.7 926,31.6 918.2,34.7 916.7,31.6
			913.6,28.5 915.2,23.8 918.2,20.7 916.7,19.1 916.7,14.5 908.9,19.1 908.9,26.9 910.5,26.9 912,31.6 910.5,33.1 912,34.7
			910.5,37.8 905.8,36.2 905.8,39.4 901.2,39.4 901.2,44 899.6,44 898,40.9 894.9,48.7 888.7,51.8 887.2,54.9 882.5,56.5
			882.5,59.6 879.4,59.6 879.4,58 877.8,58 877.8,62.7 873.2,62.7 867,64.2 865.4,65.8 874.7,68.9 879.4,76.7 877.8,84.4
			876.3,89.1 871.6,87.6 867,89.1 856.1,86 854.5,89.1 853,90.7 854.5,98.4 853,107.8 854.5,109.3 854.5,115.5 860.7,114
			865.4,118.7 868.5,117.1 874.7,117.1 882.5,109.3 882.5,104.7 885.6,100 891.8,95.3 893.4,89.1 896.5,87.6 901.2,89.1 902.7,89.1
			910.5,84.4 915.2,84.4 919.8,92.2 921.4,92.2 924.5,96.9 927.6,96.9 933.8,103.1 933.8,104.7 935.4,107.8 933.8,110.9
			933.8,112.4 933.8,115.5 932.2,115.5 932.2,117.1 927.6,114 924.5,112.4 924.5,110.9 932.2,110.9 933.8,112.4 938.5,107.8
			938.5,103.1 938.5,101.6 943.1,104.7 943.1,101.6 936.9,96.9 935.4,96.9 935.4,93.8 932.2,93.8 929.1,90.7 927.6,87.6 924.5,84.4
			922.9,78.2 927.6,76.7 927.6,81.3 929.1,79.8 932.2,81.3 932.2,84.4 946.2,95.3 946.2,101.6 950.9,109.3 952.5,110.9 957.1,110.9
			961.8,112.4 963.3,110.9 958.7,104.7 957.1,101.6 960.2,101.6 960.2,100 966.5,98.4 968,100 974.2,98.4 978.9,96.9 974.2,92.2
			975.8,87.6 977.3,84.4 980.5,81.3 980.5,78.2 983.6,75.1 988.2,73.6 991.3,76.7 		"/>
		<path id="map" class="st0" d="M230.5,337v-2.1l6.3-6.3l-6.3-2.1l2.1-8.4l4.2-2.1V314l6.3-6.3v-4.2h2.1l4.2-4.2
			l-2.1-12.5l-4.2-4.2v-4.2h-8.4v4.2l-6.3-2.1l-10.4-2.1v-2.1l-4.2-4.2l-2.1,2.1l-2.1-8.4l-8.4-8.4c0,0-20.9,0-27.2-12.6h-6.3
			l-4.2,2.1l-16.7-4.2l-8.4-6.3l-10.5-4.2l-6.3-6.3l2.1-6.3l-6.3-8.4l-6.3-8.4l-4.2-4.2h-2.1v-4.2l-4.2-4.2v-2.1h-4.2l-6.3-16.7
			l-6.3-2.1h-2.1v6.3l12.6,18.8l4.2,8.4l6.3,6.3l-4.2,2.1l-2.1-4.2l-6.3-4.2l-2.1-6.3L80,188.5l2.1-2.1l-6.3-8.4l-6.3-16.7l-4.2-2.1
			v-4.2L54.9,153l-6.3-8.4l2.1-4.2l-4.2-4.2l2.1-2.1l-6.3-2.1l-2.1-8.4v-10.5l-2.1-6.2l2.1-20.9h4.2L40.2,84l-2.1-10.5v-4.2l8.4,4.2
			v-6.3l-2.1-2.1V61l-2.1,2L25.6,52.6l-6.3-10.5L11,31.7"/>
		<path id="map" class="st0" d="M343.5,46.3l-4.2,2.1l-2.1,2.1l-6.3,2.1l-4.2,4.2l-8.4,2.1l-10.5-2.1l-8.4,2.1
			l-4.2,2.1l-2.1,2h-4.2l-14.6,18.9h4.2l6.3-8.4l8.4-8.4h8.4l4.2,2.1v4.2h-2.1l-8.4,2.1l4.2,2.1h2.1l2.1,4.2l6.3,8.4h8.4v-2.1
			l4.2-6.3l2.1,6.3l-4.2,2.1l-2.1,4.2l-12.5,4.2l-6.3,6.3l-2.1-4.2l2.1-4.2l6.3-4.2h-4.2v-2.1l-6.3,4.2h-2.1l-2.1,2.1l-12.5,6.3
			l-2.1,8.4l2.1,4.2l-8.4,2.1l-4.2,2.1l-4.2,2.1l-4.2,10.5v2.1l-4.2,4.2v-2.1h-2.1v6.3l2.1,4.2v2.1l-4.2,4.2l6.3-2.1l-16.7,12.6
			c-10.5,6.3-8.4,12.6-8.4,12.6l6.3,18.8v2.1l-4.2,6.3l-2.1-2.1l-6.3-8.4v-10.5L218,176l-6.3,2.1l-2.1-2.1l-2.1-2.1l-4.2,2.1
			l-2.1-2.1l-4.2,2.1l-2.1,2.1v4.2l-4.2-2.1h-6.3l-2.1-2.1h-12.6l-2.1,4.2l-10.5,8.4l2.1,8.4l-2.1,6.3v10.5l2.1,4.2v4.2l6.3,8.4
			l6.3,2.1l12.6-2.1v-2.1h4.2v-10.4h16.7l-4.2,14.6l-2.1-2.1v8.4L195,245l4.2,2.1l16.7-2.1l6.3,4.2L218,268l8.4,8.4l12.6-2.1h4.2
			l6.3,4.2l4.2-6.3V268H264l10.5-6.3v8.4l2.1-4.2l6.3-2.1l6.3,6.3h14.6l14.6-2.1l2.1,10.5l8.4,2.1l2.1,4.2l6.3,4.2h12.5l14.6,10.5
			l4.2,8.4v4.2l-6.3,8.4l4.2,2.1l2.1-6.3h6.3v6.3l4.2-4.2l10.5,4.2l4.2,6.3h4.2l14.6,2.1l12.5,8.4h10.5v10.5"/>
		<path id="map" class="st0" d="M205.4,109.1l6.3-4.2v-6.3l-2.1-4.2v-6.3l2.1-4.1l2.1,2.1l2.1-6.3l2.1-2.1l6.3,4.2v4.2
			l-2.1,6.3h2.1l2.1-2.1l2.1,2.1l2.1,2.1l2.1-4.2l-2.1-4.2l2.1-6.3l6.3,2.1c0,0,4.2-4.2-2.1-6.3l-2.1-2.1H218l-2.1-6.3l-2.1-6.2
			h-4.2l-2.1-4.2l-4.2,2.1l-4.2-2.1l-18.8,16.7l6.3-2.1v4.2l12.6-8.4l-2.1,4.2l6.3,2.1h2.1l8.4-2.1l2.1,2.1l2.1,2.1l-8.4,2.1
			l-4.2,2.1l-4.2,8.4l4.2-4.1l-2.1,8.4l-2.1,10.5L205.4,109.1"/>
		<polygon id="map" class="st0" points="261.9,79.8 255.6,84 255.6,86.1 249.4,86.1 247.3,90.2 245.2,94.4 241,96.5
			236.8,96.5 230.5,102.8 226.4,104.9 226.4,107 232.6,107 249.4,96.5 247.3,94.4 251.4,90.2 255.6,90.2 261.9,86.1 		"/>
		<path id="line" class="st1" d="M1003.5,251c0,0,31-194-145.5-144.5c0,0-383-234-803,46c0,0,53-29,68-4"/>
		<path class="st2" d="M1031.7,258.8h-1.1v-7.2l-2.2,0.8v-1l3.1-1.2h0.2L1031.7,258.8z"/>
		<path class="st2" d="M1039.1,255.1c-0.2,0.3-0.5,0.5-0.8,0.6c-0.3,0.2-0.7,0.2-1,0.2c-0.5,0-0.9-0.1-1.3-0.4
			c-0.4-0.2-0.7-0.6-0.8-1c-0.2-0.5-0.3-1-0.3-1.5c0-0.5,0.1-1.1,0.3-1.5c0.2-0.4,0.5-0.8,0.9-1c0.4-0.2,0.9-0.4,1.4-0.4
			c0.8,0,1.5,0.3,2,0.9c0.5,0.8,0.8,1.7,0.7,2.6v0.2c0.1,1.3-0.2,2.6-1,3.6c-0.8,0.8-1.9,1.2-3,1.2h-0.2v-0.9h0.2
			c1.4,0.2,2.7-0.9,2.8-2.3C1039.1,255.4,1039.1,255.2,1039.1,255.1L1039.1,255.1z M1037.4,255.1c0.4,0,0.7-0.1,1-0.3
			c0.3-0.2,0.5-0.5,0.7-0.8v-0.4c0-0.6-0.1-1.2-0.5-1.7c-0.4-0.7-1.3-0.9-1.9-0.5c-0.1,0.1-0.3,0.2-0.4,0.3
			c-0.3,0.4-0.5,0.9-0.4,1.4c0,0.5,0.1,1,0.4,1.4C1036.5,254.9,1036.9,255.1,1037.4,255.1z"/>
		<path class="st2" d="M1046.8,252.5c0,0.4-0.1,0.8-0.3,1.1c-0.2,0.3-0.5,0.6-0.9,0.8c0.4,0.2,0.8,0.5,1.1,0.8
			c0.3,0.4,0.4,0.8,0.4,1.2c0,0.7-0.2,1.3-0.8,1.8c-1.2,0.9-2.8,0.9-3.9,0c-0.5-0.4-0.8-1.1-0.7-1.8c0-0.4,0.1-0.9,0.4-1.2
			c0.2-0.4,0.6-0.7,1-0.8c-0.4-0.2-0.7-0.4-0.9-0.8c-0.2-0.3-0.3-0.7-0.3-1.1c0-0.6,0.2-1.3,0.7-1.7c1.1-0.8,2.6-0.8,3.6,0
			C1046.5,251.3,1046.8,251.9,1046.8,252.5z M1045.9,256.5c0-0.4-0.1-0.9-0.4-1.2c-0.3-0.3-0.7-0.5-1.2-0.4
			c-0.8-0.1-1.6,0.6-1.6,1.4c0,0.1,0,0.1,0,0.2c0,0.4,0.1,0.8,0.4,1.1c0.7,0.6,1.7,0.6,2.4,0C1045.8,257.4,1046,256.9,1045.9,256.5
			L1045.9,256.5z M1044.3,251.1c-0.4,0-0.7,0.1-1,0.4c-0.5,0.6-0.5,1.5,0,2.1c0.6,0.5,1.5,0.5,2.1,0c0.5-0.6,0.5-1.5,0-2.1
			C1045.1,251.2,1044.7,251.1,1044.3,251.1L1044.3,251.1z"/>
		<path class="st2" d="M1052.5,255.1c-0.2,0.3-0.5,0.5-0.8,0.6c-0.3,0.2-0.7,0.2-1,0.2c-0.5,0-0.9-0.1-1.3-0.4
			c-0.4-0.2-0.7-0.6-0.8-1c-0.2-0.5-0.3-1-0.3-1.5c0-0.5,0.1-1.1,0.3-1.5c0.2-0.4,0.5-0.8,0.9-1c0.4-0.2,0.9-0.4,1.4-0.4
			c0.8,0,1.5,0.3,2,0.9c0.5,0.8,0.8,1.7,0.7,2.6v0.2c0.1,1.3-0.2,2.6-1,3.6c-0.8,0.8-1.9,1.2-3,1.2h-0.2v-0.9h0.2
			c1.4,0.2,2.7-0.9,2.8-2.3C1052.5,255.4,1052.5,255.2,1052.5,255.1L1052.5,255.1z M1050.9,255.1c0.4,0,0.7-0.1,1-0.3
			c0.3-0.2,0.5-0.5,0.7-0.8v-0.4c0-0.6-0.1-1.2-0.5-1.7c-0.4-0.7-1.3-0.9-1.9-0.5c-0.1,0.1-0.3,0.2-0.4,0.3
			c-0.3,0.4-0.5,0.9-0.4,1.4c0,0.5,0.1,1,0.4,1.4C1050,254.9,1050.4,255.1,1050.9,255.1z"/>
		<path class="st2" d="M1060.5,255.6h-2.9v-0.9h2.9V255.6z"/>
		<path class="st2" d="M1067,258.8h-5.6V258l3-3.3c0.3-0.4,0.7-0.8,0.9-1.2c0.2-0.3,0.3-0.7,0.2-1c0-0.4-0.1-0.8-0.4-1.1
			c-0.3-0.3-0.7-0.4-1.1-0.4c-0.5,0-0.9,0.1-1.3,0.5c-0.3,0.3-0.5,0.8-0.4,1.3h-1.1c0-0.7,0.2-1.4,0.8-1.9c0.5-0.5,1.3-0.8,2-0.7
			c0.7,0,1.4,0.2,1.9,0.6c0.5,0.4,0.7,1,0.7,1.7c-0.2,1.2-0.7,2.2-1.6,3l-2.3,2.5h4.3V258.8z"/>
		<path class="st2" d="M1073.5,255.2c0.1,1-0.2,2-0.7,2.8c-1,1.1-2.7,1.2-3.8,0.2c-0.1-0.1-0.2-0.2-0.2-0.2
			c-0.5-0.8-0.7-1.8-0.7-2.7v-1.4c-0.1-1,0.2-1.9,0.7-2.8c1-1.1,2.8-1.2,3.9-0.2c0.1,0.1,0.1,0.1,0.2,0.2c0.5,0.8,0.7,1.8,0.7,2.7
			L1073.5,255.2z M1072.4,253.7c0-0.7-0.1-1.4-0.4-2c-0.3-0.4-0.7-0.7-1.2-0.6c-0.5,0-1,0.2-1.2,0.6c-0.3,0.6-0.4,1.3-0.4,1.9v1.7
			c0,0.7,0.1,1.4,0.4,2c0.3,0.4,0.7,0.7,1.2,0.7c0.5,0,0.9-0.2,1.2-0.6c0.3-0.6,0.5-1.3,0.4-2L1072.4,253.7z"/>
		<path class="st2" d="M1080.2,255.2c0.1,1-0.2,2-0.7,2.8c-1,1.1-2.7,1.2-3.8,0.2c-0.1-0.1-0.2-0.2-0.2-0.2
			c-0.5-0.8-0.7-1.8-0.7-2.7v-1.4c-0.1-1,0.2-1.9,0.7-2.8c1-1.1,2.8-1.2,3.9-0.2c0.1,0.1,0.1,0.1,0.2,0.2c0.5,0.8,0.7,1.8,0.7,2.7
			L1080.2,255.2z M1079.1,253.7c0-0.7-0.1-1.4-0.4-2c-0.3-0.4-0.7-0.7-1.2-0.6c-0.5,0-1,0.2-1.2,0.6c-0.3,0.6-0.4,1.3-0.4,1.9v1.7
			c0,0.7,0.1,1.4,0.4,2c0.3,0.4,0.7,0.7,1.2,0.7c0.5,0,0.9-0.2,1.2-0.6c0.3-0.6,0.5-1.3,0.4-2L1079.1,253.7z"/>
		<path class="st2" d="M1087,255.2c0.1,1-0.2,2-0.7,2.8c-1,1.1-2.7,1.2-3.8,0.2c-0.1-0.1-0.2-0.2-0.2-0.2c-0.5-0.8-0.7-1.8-0.7-2.7
			v-1.4c-0.1-1,0.2-1.9,0.7-2.8c1-1.1,2.8-1.2,3.9-0.2c0.1,0.1,0.1,0.1,0.2,0.2c0.5,0.8,0.7,1.8,0.7,2.7L1087,255.2z M1085.9,253.7
			c0-0.7-0.1-1.4-0.4-2c-0.3-0.4-0.7-0.7-1.2-0.6c-0.5,0-1,0.2-1.2,0.6c-0.3,0.6-0.4,1.3-0.4,1.9v1.7c0,0.7,0.1,1.4,0.4,2
			c0.3,0.4,0.7,0.7,1.2,0.7c0.5,0,0.9-0.2,1.2-0.6c0.3-0.6,0.5-1.3,0.4-2L1085.9,253.7z"/>
		<path class="st2" d="M791.8,118.8h-5.6v-0.8l3-3.3c0.3-0.4,0.7-0.8,0.9-1.2c0.2-0.3,0.3-0.7,0.2-1c0-0.4-0.1-0.8-0.4-1.1
			c-0.3-0.3-0.7-0.4-1.1-0.4c-0.5,0-0.9,0.1-1.3,0.5c-0.3,0.3-0.5,0.8-0.5,1.3H786c0-0.7,0.2-1.4,0.8-1.9c0.5-0.5,1.3-0.8,2-0.7
			c0.7,0,1.4,0.2,1.9,0.6c0.5,0.4,0.7,1,0.7,1.7c-0.2,1.2-0.7,2.2-1.6,3l-2.3,2.5h4.3L791.8,118.8z"/>
		<path class="st2" d="M798.2,115.2c0.1,1-0.2,2-0.7,2.8c-1,1.1-2.7,1.2-3.8,0.2c-0.1-0.1-0.2-0.2-0.2-0.2c-0.5-0.8-0.7-1.8-0.7-2.7
			v-1.4c-0.1-1,0.2-1.9,0.7-2.8c1-1.1,2.8-1.2,3.9-0.2c0.1,0.1,0.1,0.1,0.2,0.2c0.5,0.8,0.7,1.8,0.7,2.7L798.2,115.2z M797.2,113.7
			c0-0.7-0.1-1.4-0.4-2c-0.3-0.4-0.7-0.7-1.2-0.6c-0.5,0-1,0.2-1.2,0.6c-0.3,0.6-0.4,1.3-0.4,1.9v1.7c0,0.7,0.1,1.4,0.4,2
			c0.3,0.4,0.7,0.7,1.2,0.7c0.5,0,0.9-0.2,1.2-0.6c0.3-0.6,0.5-1.3,0.4-2L797.2,113.7z"/>
		<path class="st2" d="M805,115.2c0.1,1-0.2,2-0.7,2.8c-1,1.1-2.7,1.2-3.8,0.2c-0.1-0.1-0.2-0.2-0.2-0.2c-0.5-0.8-0.7-1.8-0.7-2.7
			v-1.4c-0.1-1,0.2-1.9,0.7-2.8c1-1.1,2.8-1.2,3.9-0.2c0.1,0.1,0.1,0.1,0.2,0.2c0.5,0.8,0.7,1.8,0.7,2.7L805,115.2z M803.9,113.7
			c0-0.7-0.1-1.4-0.4-2c-0.3-0.4-0.7-0.7-1.2-0.6c-0.5,0-1,0.2-1.2,0.6c-0.3,0.6-0.4,1.3-0.4,1.9v1.7c0,0.7,0.1,1.4,0.4,2
			c0.3,0.4,0.7,0.7,1.2,0.7c0.5,0,0.9-0.2,1.2-0.6c0.3-0.6,0.5-1.3,0.4-2L803.9,113.7z"/>
		<path class="st2" d="M811.7,115.2c0.1,1-0.2,2-0.7,2.8c-1,1.1-2.7,1.2-3.8,0.2c-0.1-0.1-0.2-0.2-0.2-0.2c-0.5-0.8-0.7-1.8-0.7-2.7
			v-1.4c-0.1-1,0.2-1.9,0.7-2.8c1-1.1,2.8-1.2,3.9-0.2c0.1,0.1,0.1,0.1,0.2,0.2c0.5,0.8,0.7,1.8,0.7,2.7L811.7,115.2z M810.6,113.7
			c0-0.7-0.1-1.4-0.4-2c-0.3-0.4-0.7-0.7-1.2-0.6c-0.5,0-1,0.2-1.2,0.6c-0.3,0.6-0.4,1.3-0.4,1.9v1.7c0,0.7,0.1,1.4,0.4,2
			c0.3,0.4,0.7,0.7,1.2,0.7c0.5,0,0.9-0.2,1.2-0.6c0.3-0.6,0.5-1.3,0.4-2L810.6,113.7z"/>
		<path class="st2" d="M818.5,115.7h-2.9v-0.9h2.9L818.5,115.7z"/>
		<path class="st2" d="M828,118.8h-5.6v-0.8l3-3.3c0.3-0.4,0.7-0.8,0.9-1.2c0.2-0.3,0.3-0.7,0.2-1c0-0.4-0.1-0.8-0.4-1.1
			c-0.3-0.3-0.7-0.4-1.1-0.4c-0.5,0-0.9,0.1-1.3,0.5c-0.3,0.3-0.5,0.8-0.5,1.3h-1.1c0-0.7,0.2-1.4,0.8-1.9c0.5-0.5,1.3-0.8,2-0.7
			c0.7,0,1.4,0.2,1.9,0.6c0.5,0.4,0.7,1,0.7,1.7c-0.2,1.2-0.7,2.2-1.6,3l-2.3,2.5h4.3V118.8z"/>
		<path class="st2" d="M834.5,115.2c0.1,1-0.2,2-0.7,2.8c-1,1.1-2.7,1.2-3.8,0.2c-0.1-0.1-0.2-0.2-0.2-0.2c-0.5-0.8-0.7-1.8-0.7-2.7
			v-1.4c-0.1-1,0.2-1.9,0.7-2.8c1-1.1,2.8-1.2,3.9-0.2c0.1,0.1,0.1,0.1,0.2,0.2c0.5,0.8,0.7,1.8,0.7,2.7L834.5,115.2z M833.4,113.7
			c0-0.7-0.1-1.4-0.4-2c-0.3-0.4-0.7-0.7-1.2-0.6c-0.5,0-1,0.2-1.2,0.6c-0.3,0.6-0.4,1.3-0.4,1.9v1.7c0,0.7,0.1,1.4,0.4,2
			c0.3,0.4,0.7,0.7,1.2,0.7c0.5,0,0.9-0.2,1.2-0.6c0.3-0.6,0.5-1.3,0.4-2L833.4,113.7z"/>
		<path class="st2" d="M841.2,115.2c0.1,1-0.2,2-0.7,2.8c-1,1.1-2.7,1.2-3.8,0.2c-0.1-0.1-0.2-0.2-0.2-0.2c-0.5-0.8-0.7-1.8-0.7-2.7
			v-1.4c-0.1-1,0.2-1.9,0.7-2.8c1-1.1,2.8-1.2,3.9-0.2c0.1,0.1,0.1,0.1,0.2,0.2c0.5,0.8,0.7,1.8,0.7,2.7L841.2,115.2z M840.1,113.7
			c0-0.7-0.1-1.4-0.4-2c-0.3-0.4-0.7-0.7-1.2-0.6c-0.5,0-1,0.2-1.2,0.6c-0.3,0.6-0.4,1.3-0.4,1.9v1.7c0,0.7,0.1,1.4,0.4,2
			c0.3,0.4,0.7,0.7,1.2,0.7c0.5,0,0.9-0.2,1.2-0.6c0.3-0.6,0.5-1.3,0.4-2L840.1,113.7z"/>
		<path class="st2" d="M848.1,110.9l-3.5,7.9h-1.1l3.5-7.6h-4.6v-0.9h5.8V110.9z"/>
		<path class="st2" d="M5.8,168.8H0.2v-0.8l3-3.3c0.3-0.4,0.6-0.8,0.8-1.2c0.2-0.3,0.3-0.7,0.2-1c0-0.4-0.1-0.8-0.4-1.1
			c-0.3-0.3-0.7-0.4-1.1-0.4c-0.5,0-0.9,0.1-1.3,0.5c-0.3,0.3-0.5,0.8-0.5,1.3H0c0-0.7,0.2-1.4,0.8-1.9c0.5-0.5,1.3-0.8,2-0.7
			c0.7,0,1.4,0.2,1.9,0.6c0.5,0.4,0.7,1,0.7,1.7c-0.2,1.2-0.7,2.2-1.6,3l-2.3,2.5h4.3V168.8z"/>
		<path class="st2" d="M12.2,165.2c0.1,1-0.2,2-0.6,2.8c-0.5,0.6-1.2,1-2,0.9c-0.8,0-1.5-0.3-2-0.9c-0.5-0.8-0.7-1.8-0.7-2.7v-1.4
			c-0.1-1,0.2-1.9,0.7-2.8c0.5-0.6,1.2-1,2-0.9c0.8-0.1,1.5,0.3,2,0.9c0.5,0.8,0.7,1.8,0.7,2.7L12.2,165.2z M11.2,163.7
			c0-0.7-0.1-1.4-0.4-2c-0.3-0.4-0.7-0.7-1.2-0.6c-0.5,0-1,0.2-1.2,0.6C8.1,162.3,8,163,8,163.6v1.7c0,0.7,0.1,1.4,0.4,2
			c0.3,0.4,0.7,0.7,1.2,0.7c0.5,0,0.9-0.2,1.2-0.6c0.3-0.6,0.5-1.3,0.4-2L11.2,163.7z"/>
		<path class="st2" d="M19,165.2c0.1,1-0.2,2-0.6,2.8c-0.5,0.6-1.2,1-2,0.9c-0.8,0-1.5-0.3-2-0.9c-0.5-0.8-0.7-1.8-0.7-2.7v-1.4
			c-0.1-1,0.2-1.9,0.6-2.8c0.5-0.6,1.2-1,2-0.9c0.8-0.1,1.5,0.3,2,0.9c0.5,0.8,0.7,1.8,0.7,2.7L19,165.2z M17.9,163.7
			c0-0.7-0.1-1.4-0.4-2c-0.3-0.4-0.7-0.7-1.2-0.6c-0.5,0-1,0.2-1.2,0.6c-0.3,0.6-0.4,1.3-0.4,1.9v1.7c0,0.7,0.1,1.4,0.4,2
			c0.3,0.4,0.7,0.7,1.2,0.7c0.5,0,0.9-0.2,1.2-0.6c0.3-0.6,0.5-1.3,0.4-2L17.9,163.7z"/>
		<path class="st2" d="M25.9,160.9l-3.5,7.9h-1.1l3.5-7.6h-4.6v-0.9h5.8L25.9,160.9z"/>
		<path class="st2" d="M32.5,165.6h-2.9v-0.9h2.9V165.6z"/>
		<path class="st2" d="M42,168.8h-5.6v-0.8l3-3.3c0.3-0.4,0.7-0.8,0.9-1.2c0.2-0.3,0.3-0.7,0.2-1c0-0.4-0.1-0.8-0.4-1.1
			c-0.3-0.3-0.7-0.4-1.1-0.4c-0.5,0-0.9,0.1-1.3,0.5c-0.3,0.3-0.5,0.8-0.5,1.3h-1.1c0-0.7,0.2-1.4,0.8-1.9c0.5-0.5,1.3-0.8,2-0.7
			c0.7,0,1.4,0.2,1.9,0.6c0.5,0.4,0.7,1,0.7,1.7c-0.2,1.2-0.7,2.2-1.6,3l-2.3,2.5H42V168.8z"/>
		<path class="st2" d="M48.5,165.2c0.1,1-0.2,2-0.7,2.8c-1,1.1-2.7,1.2-3.8,0.2c-0.1-0.1-0.2-0.2-0.2-0.2c-0.5-0.8-0.7-1.8-0.7-2.7
			v-1.4c-0.1-1,0.2-1.9,0.7-2.8c1-1.1,2.8-1.2,3.9-0.2c0.1,0.1,0.1,0.1,0.2,0.2c0.5,0.8,0.7,1.8,0.7,2.7L48.5,165.2z M47.4,163.7
			c0-0.7-0.1-1.4-0.4-2c-0.3-0.4-0.7-0.7-1.2-0.6c-0.5,0-1,0.2-1.2,0.6c-0.3,0.6-0.4,1.3-0.4,1.9v1.7c0,0.7,0.1,1.4,0.4,2
			c0.3,0.4,0.7,0.7,1.2,0.7c0.5,0,0.9-0.2,1.2-0.6c0.3-0.6,0.5-1.3,0.4-2L47.4,163.7z"/>
		<path class="st2" d="M53.4,168.8h-1.1v-7.2l-2.2,0.8v-1l3.1-1.2h0.2V168.8z"/>
		<path class="st2" d="M61.2,166h1.2v0.9h-1.2v2h-1.1v-2h-3.9v-0.6l3.8-5.9h1.2L61.2,166z M57.4,166h2.7v-4.2l-0.1,0.2L57.4,166z"/>
		<path class="st2" d="M134.8,143.8h-5.6v-0.8l3-3.3c0.3-0.4,0.7-0.8,0.9-1.2c0.2-0.3,0.3-0.7,0.2-1c0-0.4-0.1-0.8-0.4-1.1
			c-0.3-0.3-0.7-0.4-1.1-0.4c-0.5,0-0.9,0.1-1.3,0.5c-0.3,0.3-0.5,0.8-0.4,1.3H129c0-0.7,0.2-1.4,0.8-1.9c0.5-0.5,1.3-0.8,2-0.7
			c0.7,0,1.4,0.2,1.9,0.6c0.5,0.4,0.7,1,0.7,1.7c-0.2,1.2-0.7,2.2-1.6,3l-2.3,2.5h4.3L134.8,143.8z"/>
		<path class="st2" d="M141.2,140.2c0.1,1-0.2,2-0.6,2.8c-1,1.1-2.7,1.2-3.8,0.2c-0.1-0.1-0.2-0.2-0.2-0.2c-0.5-0.8-0.7-1.8-0.7-2.7
			v-1.4c-0.1-1,0.2-1.9,0.6-2.8c1-1.1,2.8-1.2,3.9-0.2c0.1,0.1,0.1,0.1,0.2,0.2c0.5,0.8,0.7,1.8,0.7,2.7L141.2,140.2z M140.2,138.7
			c0-0.7-0.1-1.4-0.4-2c-0.3-0.4-0.7-0.7-1.2-0.6c-0.5,0-1,0.2-1.2,0.6c-0.3,0.6-0.4,1.3-0.4,1.9v1.7c0,0.7,0.1,1.4,0.4,2
			c0.3,0.4,0.7,0.7,1.2,0.7c0.5,0,0.9-0.2,1.2-0.6c0.3-0.6,0.5-1.3,0.4-2L140.2,138.7z"/>
		<path class="st2" d="M146.2,143.8h-1.1v-7.2l-2.2,0.8v-1l3.1-1.2h0.2V143.8z"/>
		<path class="st2" d="M154,141h1.2v0.9H154v2h-1.1v-2H149v-0.6l3.8-5.9h1.2V141z M150.3,141h2.6v-4.2l-0.1,0.2L150.3,141z"/>
		<path class="st2" d="M161.5,140.6h-2.9v-0.9h2.9V140.6z"/>
		<path class="st2" d="M166.8,140.5v3.3h-1.1v-8.5h3.1c0.8,0,1.6,0.2,2.2,0.7c0.5,0.5,0.8,1.2,0.8,1.9c0,0.7-0.2,1.4-0.8,1.9
			c-0.6,0.5-1.4,0.7-2.2,0.7L166.8,140.5z M166.8,139.6h2c0.5,0,1-0.1,1.4-0.4c0.3-0.3,0.5-0.8,0.5-1.2c0-0.5-0.2-0.9-0.5-1.2
			c-0.4-0.3-0.8-0.5-1.3-0.5h-2.1L166.8,139.6z"/>
		<path class="st2" d="M176.4,140.4h-2v3.4h-1.1v-8.5h2.8c0.8-0.1,1.6,0.2,2.2,0.7c0.5,0.5,0.8,1.2,0.8,1.9c0,0.5-0.1,1-0.4,1.4
			c-0.3,0.4-0.7,0.7-1.2,0.9l2,3.6v0.1h-1.2L176.4,140.4z M174.4,139.5h1.7c0.5,0,1-0.1,1.3-0.4c0.3-0.3,0.5-0.7,0.5-1.2
			c0-0.5-0.1-0.9-0.5-1.2c-0.4-0.3-0.9-0.5-1.4-0.4h-1.7L174.4,139.5z"/>
		<path class="st2" d="M185.4,139.9h-3.7v3h4.3v0.9h-5.4v-8.5h5.4v0.9h-4.2v2.8h3.7L185.4,139.9z"/>
		<path class="st2" d="M189.9,140c-0.8-0.2-1.5-0.5-2.1-1c-0.4-0.4-0.7-0.9-0.7-1.5c0-0.7,0.3-1.3,0.8-1.7c0.6-0.5,1.3-0.7,2.1-0.7
			c0.5,0,1.1,0.1,1.6,0.3c0.4,0.2,0.8,0.5,1.1,0.9c0.3,0.4,0.4,0.8,0.4,1.3H192c0-0.5-0.2-0.9-0.5-1.2c-0.4-0.3-0.9-0.5-1.4-0.4
			c-0.5,0-0.9,0.1-1.3,0.4c-0.3,0.2-0.5,0.6-0.5,1c0,0.3,0.2,0.7,0.4,0.9c0.5,0.3,1,0.5,1.5,0.7c0.6,0.1,1.1,0.4,1.7,0.7
			c0.4,0.2,0.7,0.5,0.9,0.8c0.2,0.3,0.3,0.7,0.3,1.1c0,0.7-0.3,1.3-0.8,1.7c-0.6,0.4-1.4,0.7-2.2,0.6c-0.6,0-1.1-0.1-1.6-0.3
			c-0.5-0.2-0.9-0.5-1.2-0.9c-0.3-0.4-0.4-0.9-0.4-1.3h1.1c0,0.5,0.2,0.9,0.6,1.2c0.4,0.3,1,0.5,1.5,0.4c0.5,0,1-0.1,1.4-0.4
			c0.3-0.2,0.5-0.6,0.5-1c0-0.4-0.1-0.8-0.4-1C191,140.3,190.5,140.1,189.9,140z"/>
		<path class="st2" d="M199.4,139.9h-3.7v3h4.3v0.9h-5.4v-8.5h5.4v0.9h-4.2v2.8h3.7L199.4,139.9z"/>
		<path class="st2" d="M207.9,143.8h-1.1l-4.3-6.6v6.6h-1.1v-8.5h1.1l4.3,6.6v-6.6h1.1L207.9,143.8z"/>
		<path class="st2" d="M215.6,136.2h-2.7v7.6h-1.1v-7.6H209v-0.9h6.6V136.2z"/>
		<circle class="st3" cx="1002.5" cy="253" r="5"/>
		<circle class="st3" cx="857.5" cy="106" r="5"/>
		<circle class="st3" cx="56.5" cy="152" r="5"/>
		<circle class="st3" cx="122.5" cy="149" r="5"/>
	</g>
</g>
</svg>
